<?xml version="1.0" encoding="UTF-8" standalone="no"?>
<svg
   id="emoji"
   viewBox="0 0 67.880989 54.540695"
   version="1.1"
   sodipodi:docname="island_2.svg"
   xml:space="preserve"
   width="67.880989"
   height="54.540695"
   inkscape:version="1.2.2 (b0a8486541, 2022-12-01)"
   xmlns:inkscape="http://www.inkscape.org/namespaces/inkscape"
   xmlns:sodipodi="http://sodipodi.sourceforge.net/DTD/sodipodi-0.dtd"
   xmlns="http://www.w3.org/2000/svg"
   xmlns:svg="http://www.w3.org/2000/svg"><defs
     id="defs78" /><sodipodi:namedview
     id="namedview76"
     pagecolor="#ffffff"
     bordercolor="#000000"
     borderopacity="0.25"
     inkscape:showpageshadow="2"
     inkscape:pageopacity="0.0"
     inkscape:pagecheckerboard="0"
     inkscape:deskcolor="#d1d1d1"
     showgrid="false"
     inkscape:zoom="12.597222"
     inkscape:cx="-5.3980154"
     inkscape:cy="34.610805"
     inkscape:window-width="2560"
     inkscape:window-height="1043"
     inkscape:window-x="0"
     inkscape:window-y="0"
     inkscape:window-maximized="1"
     inkscape:current-layer="emoji" /><g
     id="g3298"
     transform="matrix(-1,0,0,1,67.783981,-1.5146366)" /><polygon
     fill="none"
     stroke="#000000"
     stroke-linecap="round"
     stroke-linejoin="round"
     stroke-miterlimit="10"
     stroke-width="2"
     points="31.7431,27.5176 35.6068,26.4824 36.2569,31.4845 33.6811,32.1747 "
     id="polygon28"
     transform="matrix(-1,0,0,1,79.783981,-3.5146366)" /><polygon
     fill="none"
     stroke="#000000"
     stroke-linecap="round"
     stroke-linejoin="round"
     stroke-miterlimit="10"
     stroke-width="2"
     points="32.5142,31.8682 37.4382,31 37.4858,36.0687 34.2031,36.6476 "
     id="polygon30"
     transform="matrix(-1,0,0,1,79.783981,-3.5146366)" /><path
     fill="none"
     stroke="#000000"
     stroke-linecap="round"
     stroke-linejoin="round"
     stroke-miterlimit="10"
     stroke-width="2"
     d="m 65.783981,29.485363 c 0.0579,-1.3706 -0.0318,-4.3499 -2,-7 -3.0097,-4.0524 -8.4449,-4.686 -12,-4 -1.2881,0.2486 -2.3112,0.6668 -3,1"
     id="path38" /><polygon
     fill="none"
     stroke="#000000"
     stroke-linecap="round"
     stroke-linejoin="round"
     stroke-miterlimit="10"
     stroke-width="2"
     points="33.0114,36.5229 38.9886,36 38.4282,41.0681 34.4434,41.4168 "
     id="polygon40"
     transform="matrix(-1,0,0,1,79.783981,-3.5146366)" /><path
     fill="none"
     stroke="#000000"
     stroke-linecap="round"
     stroke-linejoin="round"
     stroke-miterlimit="10"
     stroke-width="2"
     d="m 44.783981,19.485363 c -0.9188,-0.4244 -2.7032,-1.0984 -5,-1 -3.876,0.1661 -6.3812,2.4109 -7,3 -1.9421,1.8488 -2.7013,3.9494 -3,5"
     id="path48" /><path
     fill="none"
     stroke="#000000"
     stroke-linecap="round"
     stroke-linejoin="round"
     stroke-miterlimit="10"
     stroke-width="2"
     d="m 50.828981,24.514463 c 0.123,-0.5023 0.3779,-1.2592 0.9401,-2.0289 0.3279,-0.4488 0.6751,-0.7854 0.9699,-1.0293"
     id="path50" /><path
     fill="none"
     stroke="#000000"
     stroke-linecap="round"
     stroke-linejoin="round"
     stroke-miterlimit="10"
     stroke-width="2"
     d="m 54.637581,25.376663 c 0.1875,-0.4818 0.539,-1.1991 1.1969,-1.8887 0.3836,-0.4022 0.7718,-0.6906 1.0959,-0.8939"
     id="path52" /><path
     fill="none"
     stroke="#000000"
     stroke-linecap="round"
     stroke-linejoin="round"
     stroke-miterlimit="10"
     stroke-width="2"
     d="m 57.558581,27.307663 c 0.2152,-0.4702 0.6079,-1.1657 1.3048,-1.816 0.4064,-0.3791 0.8107,-0.6444 1.146,-0.8286"
     id="path54" /><path
     fill="none"
     stroke="#000000"
     stroke-linecap="round"
     stroke-linejoin="round"
     stroke-miterlimit="10"
     stroke-width="2"
     d="m 59.601081,30.345763 c 0.2002,-0.4767 0.5706,-1.1844 1.2466,-1.8563 0.3942,-0.3919 0.7899,-0.6698 1.1192,-0.8645"
     id="path56" /><polygon
     fill="none"
     stroke="#000000"
     stroke-linecap="round"
     stroke-linejoin="round"
     stroke-miterlimit="10"
     stroke-width="2"
     points="32.9945,41.157 38.9945,41.157 37.9945,46.157 33.9945,46.157 "
     id="polygon66"
     transform="matrix(-1,0,0,1,79.783981,-3.5146366)" /><path
     fill="none"
     stroke="#000000"
     stroke-linecap="round"
     stroke-linejoin="round"
     stroke-miterlimit="10"
     stroke-width="2"
     d="m 40.775281,23.547863 c -0.3036,-0.4185 -0.8256,-1.0231 -1.637,-1.5233 -0.4731,-0.2917 -0.9217,-0.4722 -1.2868,-0.5866"
     id="path68" /><path
     fill="none"
     stroke="#000000"
     stroke-linecap="round"
     stroke-linejoin="round"
     stroke-miterlimit="10"
     stroke-width="2"
     d="m 37.574781,25.785163 c -0.3557,-0.3753 -0.9521,-0.9066 -1.8218,-1.2966 -0.5071,-0.2274 -0.9755,-0.3478 -1.3524,-0.4136"
     id="path70" /><path
     fill="none"
     stroke="#000000"
     stroke-linecap="round"
     stroke-linejoin="round"
     stroke-miterlimit="10"
     stroke-width="2"
     d="m 35.599881,28.676563 c -0.3769,-0.354 -1.0033,-0.8496 -1.8942,-1.1884 -0.5195,-0.1975 -0.9941,-0.2904 -1.3741,-0.3341"
     id="path72" /><g
     id="hair"
     transform="translate(-0.2042,-1.5146366)" /><g
     id="skin"
     transform="translate(-0.2042,-1.5146366)" /><g
     id="skin-shadow"
     transform="translate(-0.2042,-1.5146366)" /><path
     fill="none"
     stroke="#000000"
     stroke-linecap="round"
     stroke-linejoin="round"
     stroke-miterlimit="10"
     stroke-width="2"
     d="m 62.283981,53.485363 c -1.7419,-2.0295 -4.3382,-4.4262 -7,-4 -2.888,0.4624 -3.3025,3.4841 -6,4 -3.091,0.5912 -4.9469,-3.523 -9,-4 -3.6107,-0.4249 -4.0565,2.411 -6.6667,3.5456 -1.0297,0.4476 -1.9472,0.4525 -2.3333,0.4544 -3.6617,0.0176 -4.9951,-3.5954 -8,-4 -2.4333,-0.3277 -2.9312,2.3143 -6,3 -2.8949,0.6469 -5.0464,-2.5774 -8.5000003,-3 -1.7847,-0.2184 -5,1 -7,4"
     id="path32" /><path
     fill="none"
     stroke="#000000"
     stroke-linecap="round"
     stroke-linejoin="round"
     stroke-miterlimit="10"
     stroke-width="1.99999"
     d="m 26.257881,42.737463 c -1.566867,-0.1446 -2.796462,-0.298677 -4.692824,-0.2521 -3.114585,0.0765 -11.435453,-0.297221 -11.9556143,5.210554"
     id="path34"
     sodipodi:nodetypes="csc" /><path
     fill="none"
     stroke="#000000"
     stroke-linecap="round"
     stroke-linejoin="round"
     stroke-miterlimit="10"
     stroke-width="2"
     d="m 49.783981,49.485363 c -1.4819,-2.9639 -4.882147,-5.79205 -9,-6 L 26.677652,42.772999"
     id="path36"
     sodipodi:nodetypes="csc" /><g
     id="g342"
     transform="matrix(-0.60538308,0,0,0.54309853,42.913451,7.1287033)"
     style="stroke-width:2.57726943"><g
       id="color-6"
       style="stroke-width:2.57726943" /><g
       id="skin-7"
       style="stroke-width:2.57726943"><g
         id="color-2"
         style="stroke-width:2.57726943"><path
           fill="#fcea2b"
           d="m 42.533,22.2881 a 4.3,4.3 0 0 0 -4.209,-4.1314 h -6 a 4.3,4.3 0 0 0 -4.209,4.1314 l -0.792,19.4393 a 1.0173,1.0173 0 0 1 -0.1209,0.4369 L 30.1357,40.07 29.4221,62.2033 a 1.2322,1.2322 0 0 0 0.25,0.8789 0.2412,0.2412 0 0 0 0.152,0.09 c 0.214,0 0.656,-0.4266 0.735,-1.1254 l 2.8986,-22.5033 a 4.9252,4.9252 0 0 1 0.4028,-1.1922 l 0.7246,-0.8052 H 36.21 l 0.984,0.6231 a 4.9259,4.9259 0 0 1 0.352,1.3413 l 2.542,22.5343 c 0.079,0.6978 0.522,1.1254 0.736,1.1254 a 0.242,0.242 0 0 0 0.152,-0.09 c 0.1922,-0.2483 0.4894,-0.585 0.4568,-0.9 L 40.5006,40.0702 44,42.5"
           id="path308"
           style="fill:#ba98d2;fill-opacity:1;stroke-width:2.57726943" /><circle
           cx="35.4039"
           cy="10.6511"
           r="2.9690001"
           fill="#fcea2b"
           id="circle310"
           style="fill:#9c61c5;fill-opacity:1;stroke-width:2.57726943" /></g></g><g
       id="line-5"
       style="stroke-width:2.57726943"><g
         id="Standing_Man"
         style="stroke-width:2.57726943"><g
           id="line-2"
           style="stroke-width:2.57726943"><circle
             cx="35.4039"
             cy="10.6511"
             r="2.9690001"
             fill="none"
             stroke="#000000"
             stroke-miterlimit="10"
             stroke-width="11.0585"
             id="circle314"
             style="stroke-width:2.57726943;fill:#ba98d2;fill-opacity:1" /><path
             fill="none"
             stroke="#000000"
             stroke-linecap="round"
             stroke-linejoin="round"
             stroke-width="11.0585"
             d="m 40.37,23.5891 1.9,38 c 0.055,1.1 -0.575,2 -1.4,2 a 2.076,2.076 0 0 1 -1.729,-1.987 l -2.542,-22.031 c -0.129,-1.093 -0.679,-1.987 -1.229,-1.987 -0.55,0 -1.103,0.894 -1.229,1.987 l -2.539,22.031 a 2.076,2.076 0 0 1 -1.729,1.987 c -0.825,0 -1.455,-0.9 -1.4,-2 l 1.9,-38"
             id="path316"
             style="stroke-width:2.57726943" /><path
             fill="none"
             stroke="#000000"
             stroke-linecap="round"
             stroke-linejoin="round"
             stroke-width="11.0585"
             d="m 26.3729,41.5891 0.792,-19 a 5.274,5.274 0 0 1 5.208,-5 h 6"
             id="path318"
             style="stroke-width:2.57726943" /></g><path
           fill="none"
           stroke="#000000"
           stroke-linecap="round"
           stroke-linejoin="round"
           stroke-width="11.0585"
           d="m 38.3,17.589 a 5.274,5.274 0 0 1 5.208,5 l 0.792,19"
           id="path321"
           style="stroke-width:2.57726943" /></g></g></g></svg>
