<?xml version="1.0" encoding="UTF-8" standalone="no"?>
<svg
   id="emoji"
   viewBox="0 0 67.880989 54.540695"
   version="1.1"
   sodipodi:docname="island_1.svg"
   xml:space="preserve"
   width="67.880989"
   height="54.540695"
   inkscape:version="1.2.2 (b0a8486541, 2022-12-01)"
   xmlns:inkscape="http://www.inkscape.org/namespaces/inkscape"
   xmlns:sodipodi="http://sodipodi.sourceforge.net/DTD/sodipodi-0.dtd"
   xmlns="http://www.w3.org/2000/svg"
   xmlns:svg="http://www.w3.org/2000/svg"><defs
     id="defs78" /><sodipodi:namedview
     id="namedview76"
     pagecolor="#ffffff"
     bordercolor="#000000"
     borderopacity="0.25"
     inkscape:showpageshadow="2"
     inkscape:pageopacity="0.0"
     inkscape:pagecheckerboard="0"
     inkscape:deskcolor="#d1d1d1"
     showgrid="false"
     inkscape:zoom="8.9075813"
     inkscape:cx="66.572505"
     inkscape:cy="21.666937"
     inkscape:window-width="2560"
     inkscape:window-height="1043"
     inkscape:window-x="0"
     inkscape:window-y="0"
     inkscape:window-maximized="1"
     inkscape:current-layer="emoji" /><g
     id="g461"
     transform="translate(-0.2042,-1.5146366)"><polygon
       fill="none"
       stroke="#000000"
       stroke-linecap="round"
       stroke-linejoin="round"
       stroke-miterlimit="10"
       stroke-width="2"
       points="37.4382,31 37.4858,36.0687 34.2031,36.6476 32.5142,31.8682 "
       id="polygon30"
       transform="translate(-12,-2)" /><path
       fill="none"
       stroke="#000000"
       stroke-linecap="round"
       stroke-linejoin="round"
       stroke-miterlimit="10"
       stroke-width="2"
       d="m 2,37 c -0.0579,-1.3706 0.0318,-4.3499 2,-7 3.0097,-4.0524 8.4449,-4.686 12,-4 1.2881,0.2486 2.3112,0.6668 3,1"
       id="path38" /><polygon
       fill="none"
       stroke="#000000"
       stroke-linecap="round"
       stroke-linejoin="round"
       stroke-miterlimit="10"
       stroke-width="2"
       points="38.9886,36 38.4282,41.0681 34.4434,41.4168 33.0114,36.5229 "
       id="polygon40"
       transform="translate(-12,-2)" /><path
       fill="none"
       stroke="#000000"
       stroke-linecap="round"
       stroke-linejoin="round"
       stroke-miterlimit="10"
       stroke-width="2"
       d="m 23,24 c 0.426,-1.0177 1.5345,-3.27 4,-5 3.1271,-2.1943 6.4318,-2.0601 8,-2 3.3939,0.13 5.8763,1.4067 7,2 1.3118,0.6926 2.3149,1.4347 3,2"
       id="path42" /><path
       fill="none"
       stroke="#000000"
       stroke-linecap="round"
       stroke-linejoin="round"
       stroke-miterlimit="10"
       stroke-width="2"
       d="M 20.1196,24.097 C 18.8232,23.2349 16.6932,22.0903 13.8636,21.6758 12.5727,21.4867 8.214,21.0215 4.0023,23.6139 2.7267,24.3991 1.8042,25.2558 1.2042,25.8877"
       id="path44" /><path
       fill="none"
       stroke="#000000"
       stroke-linecap="round"
       stroke-linejoin="round"
       stroke-miterlimit="10"
       stroke-width="2"
       d="m 32,15 c -0.7129,-0.3879 -2.1404,-1.036 -4,-1 -0.7209,0.0139 -4.1718,0.1831 -6,3 -1.0579,1.63 -1.0448,3.3162 -1,4"
       id="path46" /><path
       fill="none"
       stroke="#000000"
       stroke-linecap="round"
       stroke-linejoin="round"
       stroke-miterlimit="10"
       stroke-width="2"
       d="m 23,27 c 0.9188,-0.4244 2.7032,-1.0984 5,-1 3.876,0.1661 6.3812,2.4109 7,3 1.9421,1.8488 2.7013,3.9494 3,5"
       id="path48" /><path
       fill="none"
       stroke="#000000"
       stroke-linecap="round"
       stroke-linejoin="round"
       stroke-miterlimit="10"
       stroke-width="2"
       d="M 16.955,32.0291 C 16.832,31.5268 16.5771,30.7699 16.0149,30.0002 15.687,29.5514 15.3398,29.2148 15.045,28.9709"
       id="path50" /><path
       fill="none"
       stroke="#000000"
       stroke-linecap="round"
       stroke-linejoin="round"
       stroke-miterlimit="10"
       stroke-width="2"
       d="M 13.1464,32.8913 C 12.9589,32.4095 12.6074,31.6922 11.9495,31.0026 11.5659,30.6004 11.1777,30.312 10.8536,30.1087"
       id="path52" /><path
       fill="none"
       stroke="#000000"
       stroke-linecap="round"
       stroke-linejoin="round"
       stroke-miterlimit="10"
       stroke-width="2"
       d="M 10.2254,34.8223 C 10.0102,34.3521 9.6175,33.6566 8.9206,33.0063 8.5142,32.6272 8.1099,32.3619 7.7746,32.1777"
       id="path54" /><path
       fill="none"
       stroke="#000000"
       stroke-linecap="round"
       stroke-linejoin="round"
       stroke-miterlimit="10"
       stroke-width="2"
       d="M 8.1829,37.8604 C 7.9827,37.3837 7.6123,36.676 6.9363,36.0041 6.5421,35.6122 6.1464,35.3343 5.8171,35.1396"
       id="path56" /><path
       fill="none"
       stroke="#000000"
       stroke-linecap="round"
       stroke-linejoin="round"
       stroke-miterlimit="10"
       stroke-width="2"
       d="m 30.8452,23.4397 c 9e-4,-0.5171 0.0699,-1.3128 0.4345,-2.1935 0.2126,-0.5135 0.4705,-0.9226 0.6993,-1.2292"
       id="path58" /><path
       fill="none"
       stroke="#000000"
       stroke-linecap="round"
       stroke-linejoin="round"
       stroke-miterlimit="10"
       stroke-width="2"
       d="m 34.7497,23.3783 c 0.0684,-0.5125 0.2406,-1.2925 0.717,-2.118 0.2779,-0.4814 0.587,-0.8533 0.8539,-1.1274"
       id="path60" /><path
       fill="none"
       stroke="#000000"
       stroke-linecap="round"
       stroke-linejoin="round"
       stroke-miterlimit="10"
       stroke-width="2"
       d="m 38.044,24.5649 c 0.0981,-0.5077 0.3154,-1.2763 0.8391,-2.0726 0.3054,-0.4644 0.6356,-0.8177 0.918,-1.0758"
       id="path62" /><path
       fill="none"
       stroke="#000000"
       stroke-linecap="round"
       stroke-linejoin="round"
       stroke-miterlimit="10"
       stroke-width="2"
       d="m 40.7461,27.0349 c 0.082,-0.5105 0.2749,-1.2856 0.773,-2.0982 0.2906,-0.4738 0.6094,-0.8374 0.8835,-1.1043"
       id="path64" /><polygon
       fill="none"
       stroke="#000000"
       stroke-linecap="round"
       stroke-linejoin="round"
       stroke-miterlimit="10"
       stroke-width="2"
       points="38.9945,41.157 37.9945,46.157 33.9945,46.157 32.9945,41.157 "
       id="polygon66"
       transform="translate(-12,-2)" /><path
       fill="none"
       stroke="#000000"
       stroke-linecap="round"
       stroke-linejoin="round"
       stroke-miterlimit="10"
       stroke-width="2"
       d="m 27.0087,31.0625 c 0.3036,-0.4185 0.8256,-1.0231 1.637,-1.5233 0.4731,-0.2917 0.9217,-0.4722 1.2868,-0.5866"
       id="path68" /><path
       fill="none"
       stroke="#000000"
       stroke-linecap="round"
       stroke-linejoin="round"
       stroke-miterlimit="10"
       stroke-width="2"
       d="m 30.2092,33.2998 c 0.3557,-0.3753 0.9521,-0.9066 1.8218,-1.2966 0.5071,-0.2274 0.9755,-0.3478 1.3524,-0.4136"
       id="path70" /><path
       fill="none"
       stroke="#000000"
       stroke-linecap="round"
       stroke-linejoin="round"
       stroke-miterlimit="10"
       stroke-width="2"
       d="m 32.1841,36.1912 c 0.3769,-0.354 1.0033,-0.8496 1.8942,-1.1884 0.5195,-0.1975 0.9941,-0.2904 1.3741,-0.3341"
       id="path72" /></g><g
     id="hair"
     transform="translate(-0.2042,-1.5146366)" /><g
     id="skin"
     transform="translate(-0.2042,-1.5146366)" /><g
     id="skin-shadow"
     transform="translate(-0.2042,-1.5146366)" /><path
     fill="none"
     stroke="#000000"
     stroke-linecap="round"
     stroke-linejoin="round"
     stroke-miterlimit="10"
     stroke-width="2"
     d="m 5.2958,53.485363 c 1.7419,-2.0295 4.3382,-4.4262 7,-4 2.888,0.4624 3.3025,3.4841 6,4 3.091,0.5912 4.9469,-3.523 9,-4 3.6107,-0.4249 4.0565,2.411 6.6667,3.5456 1.0297,0.4476 1.9472,0.4525 2.3333,0.4544 3.6617,0.0176 4.9951,-3.5954 8,-4 2.4333,-0.3277 2.9312,2.3143 6,3 2.8949,0.6469 5.0464,-2.5774 8.5,-3 1.7847,-0.2184 5,1 7,4"
     id="path32" /><path
     fill="none"
     stroke="#000000"
     stroke-linecap="round"
     stroke-linejoin="round"
     stroke-miterlimit="10"
     stroke-width="1.99999"
     d="m 41.3219,42.737463 c 1.566867,-0.1446 2.79589,-0.2521 4.692824,-0.2521 9.484668,0 20.346109,0.492225 20.86627,6"
     id="path34"
     sodipodi:nodetypes="csc" /><path
     fill="none"
     stroke="#000000"
     stroke-linecap="round"
     stroke-linejoin="round"
     stroke-miterlimit="10"
     stroke-width="2"
     d="m 17.7958,49.485363 c 1.4819,-2.9639 4.882147,-5.79205 9,-6 l 14.106329,-0.712364"
     id="path36"
     sodipodi:nodetypes="csc" /><g
     id="color-6"
     style="stroke-width:2.0819"
     transform="matrix(0.60538308,0,0,0.64407597,32.66633,0.69869884)" /><g
     id="g11286"
     transform="translate(0,8)"><g
       id="g11249"
       style="stroke-width:2.0819"
       transform="matrix(0.60538308,0,0,0.64407597,32.66633,0.69869884)"><circle
         cx="35.4039"
         cy="10.6511"
         r="2.9690001"
         fill="#fcea2b"
         id="circle11247"
         style="fill:#3853d7;fill-opacity:1;stroke-width:2.0819" /></g><g
       id="g11280"><ellipse
         cx="54.099251"
         cy="7.5588164"
         fill="none"
         stroke="#000000"
         stroke-miterlimit="10"
         stroke-width="11.0585"
         id="circle314"
         style="stroke-width:1.3"
         rx="1.7973825"
         ry="1.9122616" /></g></g><g
     id="g11270"
     transform="matrix(1,0,0,0.73866859,0,10.891081)"
     style="stroke-width:1.16352"><g
       id="color-2"
       style="stroke-width:2.42234"
       transform="matrix(0.60538308,0,0,0.64407597,32.684433,0.68483202)"><path
         fill="#fcea2b"
         d="m 42.533,22.2881 a 4.3,4.3 0 0 0 -4.209,-4.1314 h -6 a 4.3,4.3 0 0 0 -4.209,4.1314 l -0.792,19.4393 a 1.0173,1.0173 0 0 1 -0.1209,0.4369 L 30.1357,40.07 29.4221,62.2033 a 1.2322,1.2322 0 0 0 0.25,0.8789 0.2412,0.2412 0 0 0 0.152,0.09 c 0.214,0 0.656,-0.4266 0.735,-1.1254 l 2.8986,-22.5033 a 4.9252,4.9252 0 0 1 0.4028,-1.1922 l 0.7246,-0.8052 H 36.21 l 0.984,0.6231 a 4.9259,4.9259 0 0 1 0.352,1.3413 l 2.542,22.5343 c 0.079,0.6978 0.522,1.1254 0.736,1.1254 a 0.242,0.242 0 0 0 0.152,-0.09 c 0.1922,-0.2483 0.4894,-0.585 0.4568,-0.9 L 40.5006,40.0702 44,42.5"
         id="path308"
         style="fill:#3853d7;fill-opacity:1;stroke-width:2.42234" /></g><g
       id="g11261"
       style="stroke-width:2.42234"
       transform="matrix(0.60538308,0,0,0.64407597,32.66633,0.69869884)"><g
         id="g11257"
         style="stroke-width:2.42234"><path
           fill="none"
           stroke="#000000"
           stroke-linecap="round"
           stroke-linejoin="round"
           stroke-width="11.0585"
           d="m 40.37,23.5891 1.9,38 c 0.055,1.1 -0.575,2 -1.4,2 a 2.076,2.076 0 0 1 -1.729,-1.987 l -2.542,-22.031 c -0.129,-1.093 -0.679,-1.987 -1.229,-1.987 -0.55,0 -1.103,0.894 -1.229,1.987 l -2.539,22.031 a 2.076,2.076 0 0 1 -1.729,1.987 c -0.825,0 -1.455,-0.9 -1.4,-2 l 1.9,-38"
           id="path11253"
           style="stroke-width:2.42234" /><path
           fill="none"
           stroke="#000000"
           stroke-linecap="round"
           stroke-linejoin="round"
           stroke-width="11.0585"
           d="m 26.3729,41.5891 0.792,-19 a 5.274,5.274 0 0 1 5.208,-5 h 6"
           id="path11255"
           style="stroke-width:2.42234" /></g><path
         fill="none"
         stroke="#000000"
         stroke-linecap="round"
         stroke-linejoin="round"
         stroke-width="11.0585"
         d="m 38.3,17.589 a 5.274,5.274 0 0 1 5.208,5 l 0.792,19"
         id="path11259"
         style="stroke-width:2.42234" /></g></g></svg>
